<svg xmlns="http://www.w3.org/2000/svg" width="32" height="32" viewBox="0 0 32 32"><path d="M28.786 9.31v.926c0 8.52-6.493 18.337-18.365 18.337-3.71 0-7.048-1.112-10.017-2.964h1.484c2.97 0 5.75-1.112 7.977-2.78-2.782 0-5.194-1.85-6.12-4.445.555.186.926.186 1.483.186.556 0 1.113 0 1.67-.185-2.97-.555-5.195-3.148-5.195-6.297.927.556 1.855.74 2.968.74-1.855-1.11-2.968-3.148-2.968-5.37 0-1.112.37-2.223.927-3.334 3.153 3.89 7.976 6.482 13.356 6.667-.185-.37-.185-.925-.185-1.295 0-3.52 2.97-6.483 6.493-6.483 1.855 0 3.525.74 4.638 2.038 1.485-.37 2.784-.74 4.082-1.482-.556 1.482-1.484 2.778-2.782 3.52 1.298-.186 2.597-.557 3.71-.927-.928 1.112-2.04 2.224-3.154 3.15z" fill="#181616"/></svg>